<svg width="47" height="39" viewBox="0 0 47 39" fill="none" xmlns="http://www.w3.org/2000/svg">
<path d="M23.5 33.6C13.0307 33.6 7.79025 20.9429 15.1927 13.5427C22.5952 6.14256 35.25 11.3807 35.25 21.85C35.25 24.9663 34.0121 27.9549 31.8085 30.1585C29.605 32.362 26.6163 33.6 23.5 33.6ZM15.087 2.01595L13.5125 3.51996C12.643 4.35891 11.4797 5.41876 10.2695 5.42346H4.7C2.1479 5.39996 0 7.07316 0 9.53596V34.164C0 36.5845 2.35 38.3 4.7 38.3H42.3C44.65 38.3 47 36.6174 47 34.164V9.53596C47 7.09901 44.65 5.39996 42.3 5.39996H36.7305C35.5202 5.39526 34.357 4.33541 33.4875 3.49646L31.913 1.99245C31.038 1.16124 29.8768 0.698446 28.67 0.699955H18.33C17.1199 0.704774 15.9583 1.17616 15.087 2.01595Z" fill="#6B6B6B"/>
</svg>
