<svg width="34" height="33" viewBox="0 0 34 33" fill="none" xmlns="http://www.w3.org/2000/svg">
<path d="M6 17.875H14.25C15.0063 17.875 15.625 17.2563 15.625 16.5V5.5C15.625 4.74375 15.0063 4.125 14.25 4.125H6C5.24375 4.125 4.625 4.74375 4.625 5.5V16.5C4.625 17.2563 5.24375 17.875 6 17.875ZM6 28.875H14.25C15.0063 28.875 15.625 28.2563 15.625 27.5V22C15.625 21.2437 15.0063 20.625 14.25 20.625H6C5.24375 20.625 4.625 21.2437 4.625 22V27.5C4.625 28.2563 5.24375 28.875 6 28.875ZM19.75 28.875H28C28.7563 28.875 29.375 28.2563 29.375 27.5V16.5C29.375 15.7437 28.7563 15.125 28 15.125H19.75C18.9937 15.125 18.375 15.7437 18.375 16.5V27.5C18.375 28.2563 18.9937 28.875 19.75 28.875ZM18.375 5.5V11C18.375 11.7562 18.9937 12.375 19.75 12.375H28C28.7563 12.375 29.375 11.7562 29.375 11V5.5C29.375 4.74375 28.7563 4.125 28 4.125H19.75C18.9937 4.125 18.375 4.74375 18.375 5.5Z" fill="#474747"/>
</svg>
