<svg width="47" height="44" viewBox="0 0 47 44" fill="none" xmlns="http://www.w3.org/2000/svg">
<g clip-path="url(#clip0_1508_2439)">
<path fill-rule="evenodd" clip-rule="evenodd" d="M35.0125 14.9466C34.7855 14.282 34.4025 13.6778 33.8937 13.1817H33.8954C33.3849 12.6858 32.7652 12.3119 32.0803 12.0901L29.8331 11.3804C29.6613 11.32 29.5128 11.2097 29.4079 11.0644C29.3029 10.9191 29.2466 10.7459 29.2466 10.5684C29.2466 10.3909 29.3029 10.2178 29.4079 10.0725C29.5128 9.92719 29.6613 9.81685 29.8331 9.75648L32.0803 9.04672C32.6406 8.85876 33.1575 8.56843 33.6036 8.19238H28.4112L29.8761 17.6306C30.1617 19.4131 32.1699 20.7958 34.6102 20.7958C37.2433 20.7958 39.3776 19.1826 39.3776 17.1948C39.3764 16.8828 39.3269 16.5827 39.2292 16.2946L38.4372 14.2836C38.3226 14.4961 38.2255 14.7177 38.1468 14.9466L37.4162 17.1282C37.3552 17.2963 37.2419 17.4419 37.0921 17.5449C36.9422 17.6479 36.7632 17.7032 36.5796 17.7032C36.3961 17.7032 36.2171 17.6479 36.0672 17.5449C35.9174 17.4419 35.8041 17.2963 35.7431 17.1282L35.0125 14.9466ZM16.9664 8.19238L15.4996 17.645C15.2048 19.4203 13.1966 20.7958 10.7674 20.7958C8.13246 20.7958 6 19.1826 6 17.1948C6.00124 16.8828 6.0513 16.5827 6.1502 16.2946L9.33776 8.19238H16.9664ZM27.4562 17.1948C27.4562 19.1826 25.3219 20.7958 22.6888 20.7958C20.0557 20.7958 17.9214 19.1826 17.9214 17.1948L17.9288 16.9698L18.8745 8.19238H26.5031L27.447 16.977C27.4519 17.0478 27.455 17.1204 27.4562 17.1948ZM31.9604 29.7983V22.6791C32.8095 22.9804 33.7061 23.1357 34.6102 23.1383C34.9648 23.1335 35.3187 23.104 35.669 23.05V34.4796C35.669 35.8642 34.5008 37.0003 33.0729 37.0003H12.3009C10.875 37.0003 9.70862 35.866 9.70862 34.4796V23.0482C10.0554 23.0951 10.4058 23.1365 10.7674 23.1365C11.7113 23.1365 12.6051 22.9744 13.4172 22.6899V29.7983H31.9604Z" fill="#4B4B4B"/>
<path d="M34.4056 12.5601C34.8112 12.9438 35.1165 13.4112 35.2975 13.9252L35.88 15.6126C35.9287 15.7427 36.019 15.8553 36.1385 15.935C36.2579 16.0147 36.4007 16.0574 36.547 16.0574C36.6934 16.0574 36.8361 16.0147 36.9556 15.935C37.075 15.8553 37.1653 15.7427 37.214 15.6126L37.7965 13.9252C37.9781 13.4125 38.2839 12.9466 38.6897 12.5646C39.0955 12.1826 39.5901 11.8949 40.1343 11.7244L41.926 11.1754C42.063 11.1287 42.1814 11.0434 42.2651 10.931C42.3487 10.8186 42.3936 10.6847 42.3936 10.5474C42.3936 10.4101 42.3487 10.2762 42.2651 10.1638C42.1814 10.0514 42.063 9.96606 41.926 9.91936L41.8896 9.91078L40.0979 9.3618C39.5537 9.19126 39.059 8.90359 38.6533 8.52157C38.2475 8.13956 37.9417 7.67371 37.7601 7.16095L37.1789 5.47356C37.1305 5.34307 37.0402 5.22999 36.9206 5.14999C36.801 5.06998 36.658 5.02701 36.5113 5.02701C36.3646 5.02701 36.2215 5.06998 36.1019 5.14999C35.9823 5.22999 35.892 5.34307 35.8436 5.47356L35.2611 7.16095L35.2468 7.20262C35.0646 7.70259 34.764 8.15688 34.3677 8.531C33.9714 8.90512 33.4899 9.18924 32.9597 9.3618L31.168 9.91078C31.031 9.95748 30.9127 10.0428 30.829 10.1552C30.7453 10.2676 30.7004 10.4015 30.7004 10.5388C30.7004 10.6761 30.7453 10.81 30.829 10.9224C30.9127 11.0348 31.031 11.1201 31.168 11.1668L32.9597 11.7158C33.5058 11.8874 33.9999 12.1766 34.4069 12.5601H34.4056Z" fill="url(#paint0_linear_1508_2439)"/>
</g>
<defs>
<linearGradient id="paint0_linear_1508_2439" x1="36.2515" y1="3.83117" x2="36.4878" y2="16.1137" gradientUnits="userSpaceOnUse">
<stop stop-color="#F50B0B"/>
<stop offset="1" stop-color="#FFC942"/>
</linearGradient>
<clipPath id="clip0_1508_2439">
<rect width="46" height="44" fill="white" transform="translate(0.5)"/>
</clipPath>
</defs>
</svg>
