<svg width="41" height="40" viewBox="0 0 41 40" fill="none" xmlns="http://www.w3.org/2000/svg">
<g filter="url(#filter0_d_2571_818)">
<rect x="5" y="5" width="30.7692" height="30" rx="7" fill="white"/>
<path d="M24.0961 17.6938H23.0769V14.4887C23.0769 14.1361 22.7884 13.8477 22.4359 13.8477H19.8718C19.5192 13.8477 19.2307 14.1361 19.2307 14.4887V17.6938H18.2115C17.641 17.6938 17.3525 18.3861 17.7564 18.79L20.6987 21.7323C20.9487 21.9823 21.3525 21.9823 21.6025 21.7323L24.5448 18.79C24.9487 18.3861 24.6666 17.6938 24.0961 17.6938ZM16.6666 24.1041C16.6666 24.4566 16.9551 24.7451 17.3077 24.7451H25C25.3525 24.7451 25.641 24.4566 25.641 24.1041C25.641 23.7515 25.3525 23.463 25 23.463H17.3077C16.9551 23.463 16.6666 23.7515 16.6666 24.1041Z" fill="black"/>
</g>
<defs>
<filter id="filter0_d_2571_818" x="0" y="0" width="40.7693" height="40" filterUnits="userSpaceOnUse" color-interpolation-filters="sRGB">
<feFlood flood-opacity="0" result="BackgroundImageFix"/>
<feColorMatrix in="SourceAlpha" type="matrix" values="0 0 0 0 0 0 0 0 0 0 0 0 0 0 0 0 0 0 127 0" result="hardAlpha"/>
<feOffset/>
<feGaussianBlur stdDeviation="2.5"/>
<feComposite in2="hardAlpha" operator="out"/>
<feColorMatrix type="matrix" values="0 0 0 0 0 0 0 0 0 0 0 0 0 0 0 0 0 0 0.25 0"/>
<feBlend mode="normal" in2="BackgroundImageFix" result="effect1_dropShadow_2571_818"/>
<feBlend mode="normal" in="SourceGraphic" in2="effect1_dropShadow_2571_818" result="shape"/>
</filter>
</defs>
</svg>
