<svg width="26" height="26" viewBox="0 0 26 26" fill="none" xmlns="http://www.w3.org/2000/svg">
<g clip-path="url(#clip0_1508_661)">
<path d="M13.4063 13L4.59064 21.8156C6.78439 23.8875 9.75001 25.1875 13 25.1875C19.7438 25.1875 25.1875 19.7438 25.1875 13H13.4063Z" fill="#ED4C5C"/>
<path d="M25.1875 13C25.1875 6.25625 19.7438 0.8125 13 0.8125C9.75001 0.8125 6.78439 2.1125 4.59064 4.18438L13.4063 13H25.1875Z" fill="#428BC1"/>
<path d="M4.59063 4.18439C2.275 6.41876 0.8125 9.54689 0.8125 13C0.8125 16.4531 2.275 19.5813 4.59063 21.8156L13.4062 13L4.59063 4.18439Z" fill="#F9F9F9"/>
<path d="M5.28124 5.52501L4.95624 6.09376L5.40311 6.54064L4.79374 6.45939L4.46874 7.02814L4.38749 6.41876L3.77811 6.33751L4.34686 6.01251L4.26561 5.40314L4.71249 5.85001L5.28124 5.52501ZM5.36249 19.5L4.91561 19.9875L5.24061 20.5156L4.67186 20.2719L4.22499 20.7594L4.30624 20.1094L3.69686 19.8656L4.34686 19.7438L4.42811 19.0938L4.75311 19.6625L5.36249 19.5ZM12.3906 13L11.7812 13.2031V13.8125L11.375 13.325L10.7656 13.4875L11.1719 13L10.7656 12.5125L11.375 12.675L11.7812 12.1875V12.7969L12.3906 13ZM9.62811 12.3906L9.38436 12.1875L6.74374 12.7563H6.78436L9.26249 12.1063L8.93749 11.9031L6.82499 12.7156L8.57186 11.2531L8.53124 10.8875L6.70311 12.7563H6.66249L8.49061 10.725L8.44999 10.4406L8.16561 10.4813L6.54061 12.5938V12.5531L8.04374 10.4L7.67811 10.4406L6.58124 12.4313L6.98749 10.1563L6.74374 9.91251L6.49999 12.5531V12.5938L6.58124 9.83126L6.37811 9.62814L6.17499 9.83126L6.25624 12.5938V12.5531L6.05311 9.95314L5.80936 10.1969L6.21561 12.4719L5.11874 10.4813L4.75311 10.4406L6.25624 12.5938V12.6344L4.59061 10.4406L4.30624 10.4L4.26561 10.6844L6.09374 12.7156H6.05311L4.22499 10.8469L4.18436 11.2125L5.93124 12.675L3.81874 11.8625L3.53436 12.0656L6.01249 12.7156H6.05311L3.37186 12.1875L3.12811 12.35L3.29061 12.5938L5.97186 12.9594H5.93124L3.37186 12.7156L3.57499 13L5.84999 12.9594L3.73749 13.8125L3.65624 14.1781L5.97186 13.0406H6.01249L3.61561 14.3406L3.53436 14.625L3.81874 14.7063L6.13436 13.2438V13.2844L4.02186 14.7875L4.34686 14.8688L6.05311 13.3656L4.87499 15.3563L5.03749 15.6813L6.09374 13.325L6.13436 13.2844L5.11874 15.8438L5.24061 16.1281L5.52499 16.0063L6.37811 13.3656V13.4063L5.68749 15.925L6.01249 15.7625L6.37811 13.4875L6.74374 15.7625L7.06874 15.925L6.37811 13.4063V13.3656L7.23124 16.0063L7.51561 16.1281L7.63749 15.8438L6.62186 13.2844L6.66249 13.325L7.71874 15.6813L7.88124 15.3563L6.74374 13.3656L8.44999 14.8688L8.77499 14.7875L6.66249 13.2844V13.2438L8.97811 14.7063L9.26249 14.625L9.18124 14.3406L6.78436 13.0406H6.82499L9.14061 14.1781L9.01874 13.8125L6.86561 13.0406L9.14061 13.0813L9.34374 12.7969L6.78436 13.0406H6.74374L9.42499 12.675L9.62811 12.3906Z" fill="#FFCE31"/>
<path d="M6.37811 14.8281C7.38776 14.8281 8.20624 14.0096 8.20624 13C8.20624 11.9904 7.38776 11.1719 6.37811 11.1719C5.36847 11.1719 4.54999 11.9904 4.54999 13C4.54999 14.0096 5.36847 14.8281 6.37811 14.8281Z" fill="#FFCE31"/>
</g>
<defs>
<clipPath id="clip0_1508_661">
<rect width="26" height="26" fill="white"/>
</clipPath>
</defs>
</svg>
