<svg width="39" height="39" viewBox="0 0 39 39" fill="none" xmlns="http://www.w3.org/2000/svg">
<path d="M36.5832 19.5001C36.5832 27.5532 36.5832 31.5797 34.0805 34.0807C31.5812 36.5834 27.5529 36.5834 19.4998 36.5834C11.4468 36.5834 7.42021 36.5834 4.9175 34.0807C2.4165 31.5814 2.4165 27.5532 2.4165 19.5001C2.4165 11.447 2.4165 7.42046 4.9175 4.91775C7.42192 2.41675 11.4468 2.41675 19.4998 2.41675" stroke="#6B6B6B" stroke-width="3" stroke-linecap="round"/>
<path d="M2.4165 20.3541L5.4095 17.7353C6.1597 17.0794 7.13107 16.7331 8.12699 16.7664C9.12291 16.7997 10.069 17.2101 10.7737 17.9146L18.1024 25.2434C18.6711 25.812 19.4222 26.1618 20.2234 26.2311C21.0246 26.3005 21.8246 26.085 22.4826 25.6226L22.9934 25.2639C23.9425 24.5973 25.0897 24.2723 26.2475 24.3421C27.4052 24.412 28.505 24.8724 29.3672 25.6483L34.8748 30.6041" stroke="#6B6B6B" stroke-width="3" stroke-linecap="round"/>
<path d="M28.0415 17.7917V2.41675M28.0415 17.7917L33.1665 12.6667M28.0415 17.7917L22.9165 12.6667" stroke="#6B6B6B" stroke-width="3" stroke-linecap="round" stroke-linejoin="round"/>
</svg>
