<svg width="42" height="44" viewBox="0 0 42 44" fill="none" xmlns="http://www.w3.org/2000/svg">
<path d="M39.9172 27.7585C39.918 27.7516 39.918 27.7447 39.9172 27.7378L37.3898 15.3036V15.277C36.9997 13.2355 35.875 11.3896 34.2115 10.0601C32.5479 8.73058 30.4505 8.00165 28.2841 8H14.6972C12.5247 7.9992 10.4215 8.73227 8.75743 10.0703C7.09338 11.4083 5.97507 13.2656 5.5992 15.3155L3.08414 27.7378C3.08342 27.7447 3.08342 27.7516 3.08414 27.7585C2.87942 28.8721 3.05054 30.0193 3.57264 31.0334C4.09474 32.0475 4.94064 32.8758 5.98754 33.398C7.03444 33.9202 8.22784 34.1091 9.39446 33.9374C10.5611 33.7657 11.6402 33.2422 12.4751 32.443L12.5291 32.3883L18.6495 25.7273H24.355L30.4784 32.3883C30.4954 32.4075 30.5139 32.4252 30.5324 32.443C31.573 33.4377 32.9822 33.9975 34.4523 34C35.2626 33.9995 36.0629 33.8291 36.7972 33.5007C37.5314 33.1723 38.1817 32.6938 38.7023 32.099C39.223 31.5042 39.6014 30.8074 39.811 30.0576C40.0206 29.3077 40.0564 28.523 39.9157 27.7585H39.9172ZM17.7983 18.6364H16.5646V19.8182C16.5646 20.1316 16.4347 20.4322 16.2033 20.6539C15.972 20.8755 15.6582 21 15.331 21C15.0038 21 14.69 20.8755 14.4587 20.6539C14.2273 20.4322 14.0974 20.1316 14.0974 19.8182V18.6364H12.8637C12.5366 18.6364 12.2228 18.5119 11.9914 18.2902C11.7601 18.0686 11.6301 17.768 11.6301 17.4545C11.6301 17.1411 11.7601 16.8405 11.9914 16.6189C12.2228 16.3972 12.5366 16.2727 12.8637 16.2727H14.0974V15.0909C14.0974 14.7775 14.2273 14.4769 14.4587 14.2552C14.69 14.0336 15.0038 13.9091 15.331 13.9091C15.6582 13.9091 15.972 14.0336 16.2033 14.2552C16.4347 14.4769 16.5646 14.7775 16.5646 15.0909V16.2727H17.7983C18.1254 16.2727 18.4392 16.3972 18.6706 16.6189C18.9019 16.8405 19.0319 17.1411 19.0319 17.4545C19.0319 17.768 18.9019 18.0686 18.6706 18.2902C18.4392 18.5119 18.1254 18.6364 17.7983 18.6364ZM23.9664 17.4545C23.9664 17.1411 24.0964 16.8405 24.3277 16.6189C24.5591 16.3972 24.8729 16.2727 25.2 16.2727H28.9009C29.2281 16.2727 29.5419 16.3972 29.7732 16.6189C30.0046 16.8405 30.1346 17.1411 30.1346 17.4545C30.1346 17.768 30.0046 18.0686 29.7732 18.2902C29.5419 18.5119 29.2281 18.6364 28.9009 18.6364H25.2C24.8729 18.6364 24.5591 18.5119 24.3277 18.2902C24.0964 18.0686 23.9664 17.768 23.9664 17.4545ZM36.9766 30.3763C36.7455 30.695 36.4507 30.9666 36.1092 31.1753C35.7678 31.384 35.3864 31.5256 34.9873 31.592C34.5046 31.6729 34.0087 31.6429 33.5404 31.5045C33.072 31.3661 32.6447 31.1232 32.2934 30.7958L27.6365 25.7273H28.2841C29.8591 25.7275 31.408 25.3425 32.7843 24.6088C34.1605 23.8752 35.3185 22.8171 36.1485 21.5348L37.4962 28.1825C37.5649 28.5629 37.5543 28.9526 37.4651 29.3291C37.3759 29.7056 37.2099 30.0615 36.9766 30.3763Z" fill="#4B4B4B"/>
<path d="M36.9766 30.3763C36.7455 30.695 36.4507 30.9666 36.1092 31.1753C35.7678 31.384 35.3864 31.5256 34.9873 31.592C34.5046 31.6729 34.0087 31.6429 33.5404 31.5045C33.072 31.3661 32.6447 31.1232 32.2934 30.7958L27.6365 25.7273H28.2841C29.8591 25.7275 31.408 25.3425 32.7843 24.6088C34.1605 23.8752 35.3185 22.8171 36.1485 21.5348L37.4962 28.1825C37.5649 28.5629 37.5543 28.9526 37.4651 29.3291C37.3759 29.7056 37.2099 30.0615 36.9766 30.3763Z" fill="url(#paint0_linear_1508_2451)"/>
<path d="M17.7983 18.6364H16.5646V19.8182C16.5646 20.1316 16.4347 20.4322 16.2033 20.6539C15.972 20.8755 15.6582 21 15.331 21C15.0038 21 14.69 20.8755 14.4587 20.6539C14.2273 20.4322 14.0974 20.1316 14.0974 19.8182V18.6364H12.8637C12.5366 18.6364 12.2228 18.5119 11.9914 18.2902C11.7601 18.0686 11.6301 17.768 11.6301 17.4545C11.6301 17.1411 11.7601 16.8405 11.9914 16.6189C12.2228 16.3972 12.5366 16.2727 12.8637 16.2727H14.0974V15.0909C14.0974 14.7775 14.2273 14.4769 14.4587 14.2552C14.69 14.0336 15.0038 13.9091 15.331 13.9091C15.6582 13.9091 15.972 14.0336 16.2033 14.2552C16.4347 14.4769 16.5646 14.7775 16.5646 15.0909V16.2727H17.7983C18.1254 16.2727 18.4392 16.3972 18.6706 16.6189C18.9019 16.8405 19.0319 17.1411 19.0319 17.4545C19.0319 17.768 18.9019 18.0686 18.6706 18.2902C18.4392 18.5119 18.1254 18.6364 17.7983 18.6364Z" fill="url(#paint1_linear_1508_2451)"/>
<path d="M23.9664 17.4545C23.9664 17.1411 24.0964 16.8405 24.3277 16.6189C24.5591 16.3972 24.8729 16.2727 25.2 16.2727H28.9009C29.2281 16.2727 29.5419 16.3972 29.7732 16.6189C30.0046 16.8405 30.1346 17.1411 30.1346 17.4545C30.1346 17.768 30.0046 18.0686 29.7732 18.2902C29.5419 18.5119 29.2281 18.6364 28.9009 18.6364H25.2C24.8729 18.6364 24.5591 18.5119 24.3277 18.2902C24.0964 18.0686 23.9664 17.768 23.9664 17.4545Z" fill="url(#paint2_linear_1508_2451)"/>
<defs>
<linearGradient id="paint0_linear_1508_2451" x1="21.5" y1="8" x2="21.5" y2="34" gradientUnits="userSpaceOnUse">
<stop stop-color="#FFBC50"/>
<stop offset="1" stop-color="#F50B0B"/>
</linearGradient>
<linearGradient id="paint1_linear_1508_2451" x1="21.5" y1="8" x2="21.5" y2="34" gradientUnits="userSpaceOnUse">
<stop stop-color="#FFC942"/>
<stop offset="1" stop-color="#F50B0B"/>
</linearGradient>
<linearGradient id="paint2_linear_1508_2451" x1="21.5" y1="8" x2="21.5" y2="34" gradientUnits="userSpaceOnUse">
<stop stop-color="#FFC942"/>
<stop offset="1" stop-color="#F50B0B"/>
</linearGradient>
</defs>
</svg>
