<svg width="35" height="35" viewBox="0 0 35 35" fill="none" xmlns="http://www.w3.org/2000/svg">
<circle cx="17.5" cy="17.5" r="17.5" fill="#D9D9D9"/>
<g clip-path="url(#clip0_1508_448)">
<path fill-rule="evenodd" clip-rule="evenodd" d="M12.5 11C12.1022 11 11.7206 11.158 11.4393 11.4393C11.158 11.7206 11 12.1022 11 12.5V15H10V12.5C10 11.837 10.2634 11.2011 10.7322 10.7322C11.2011 10.2634 11.837 10 12.5 10H15V11H12.5ZM22.5 11H20V10H22.5C23.163 10 23.7989 10.2634 24.2678 10.7322C24.7366 11.2011 25 11.837 25 12.5V15H24V12.5C24 12.1022 23.842 11.7206 23.5607 11.4393C23.2794 11.158 22.8978 11 22.5 11ZM15 16H14V15H15V16ZM21 16H20V15H21V16ZM14.9 18.7C15.2027 19.1036 15.5953 19.4312 16.0466 19.6569C16.4978 19.8825 16.9955 20 17.5 20C18.0045 20 18.5022 19.8825 18.9534 19.6569C19.4047 19.4312 19.7973 19.1036 20.1 18.7L20.9 19.3C19.2 21.567 15.8 21.567 14.1 19.3L14.9 18.7ZM10 22.5V20H11V22.5C11 22.8978 11.158 23.2794 11.4393 23.5607C11.7206 23.842 12.1022 24 12.5 24H15V25H12.5C11.837 25 11.2011 24.7366 10.7322 24.2678C10.2634 23.7989 10 23.163 10 22.5ZM25 20V22.5C25 23.163 24.7366 23.7989 24.2678 24.2678C23.7989 24.7366 23.163 25 22.5 25H20V24H22.5C22.8978 24 23.2794 23.842 23.5607 23.5607C23.842 23.2794 24 22.8978 24 22.5V20H25Z" fill="#6B6B6B"/>
</g>
<defs>
<clipPath id="clip0_1508_448">
<rect width="15" height="15" fill="white" transform="translate(10 10)"/>
</clipPath>
</defs>
</svg>
