<svg width="35" height="36" viewBox="0 0 35 36" fill="none" xmlns="http://www.w3.org/2000/svg">
<circle cx="17.5" cy="18" r="17.5" fill="#D9D9D9"/>
<path d="M20.6667 21.9583V21.1667H18.2917V18.7917H20.6667V20.375H22.25V21.9583H21.4583V23.5417H19.875V25.125H18.2917V22.75H19.875V21.9583H20.6667ZM24.625 25.125H21.4583V23.5417H23.0417V21.9583H24.625V25.125ZM10.375 10.875H16.7083V17.2083H10.375V10.875ZM11.9583 12.4583V15.625H15.125V12.4583H11.9583ZM18.2917 10.875H24.625V17.2083H18.2917V10.875ZM19.875 12.4583V15.625H23.0417V12.4583H19.875ZM10.375 18.7917H16.7083V25.125H10.375V18.7917ZM11.9583 20.375V23.5417H15.125V20.375H11.9583ZM22.25 18.7917H24.625V20.375H22.25V18.7917ZM12.75 13.25H14.3333V14.8333H12.75V13.25ZM12.75 21.1667H14.3333V22.75H12.75V21.1667ZM20.6667 13.25H22.25V14.8333H20.6667V13.25Z" fill="#6B6B6B"/>
</svg>
