<svg width="35" height="36" viewBox="0 0 35 36" fill="none" xmlns="http://www.w3.org/2000/svg">
<circle cx="17.5" cy="18" r="17.5" fill="#D9D9D9"/>
<path d="M18 21.7C14.8815 21.7 13.3205 17.9298 15.5255 15.7255C17.7305 13.5212 21.5 15.0815 21.5 18.2C21.5 19.1283 21.1313 20.0185 20.4749 20.6749C19.8185 21.3312 18.9283 21.7 18 21.7ZM15.494 12.292L15.025 12.74C14.766 12.9899 14.4195 13.3056 14.059 13.307H12.4C11.6398 13.3 11 13.7984 11 14.532V21.868C11 22.589 11.7 23.1 12.4 23.1H23.6C24.3 23.1 25 22.5988 25 21.868V14.532C25 13.8061 24.3 13.3 23.6 13.3H21.941C21.5805 13.2986 21.234 12.9829 20.975 12.733L20.506 12.285C20.2454 12.0374 19.8995 11.8995 19.54 11.9H16.46C16.0995 11.9014 15.7535 12.0418 15.494 12.292Z" fill="#6B6B6B"/>
<path d="M18 20.3C19.1598 20.3 20.1 19.3598 20.1 18.2C20.1 17.0402 19.1598 16.1 18 16.1C16.8402 16.1 15.9 17.0402 15.9 18.2C15.9 19.3598 16.8402 20.3 18 20.3Z" fill="#6B6B6B"/>
</svg>
