<svg width="27" height="27" viewBox="0 0 27 27" fill="none" xmlns="http://www.w3.org/2000/svg">
<path d="M13.5 2.25C7.3125 2.25 2.25 7.3125 2.25 13.5C2.25 19.6875 7.3125 24.75 13.5 24.75C19.6875 24.75 24.75 19.6875 24.75 13.5C24.75 7.3125 19.6875 2.25 13.5 2.25Z" fill="#7CB342"/>
<path d="M25.3125 13.5C25.3125 20.0812 19.9688 25.3125 13.5 25.3125C7.03125 25.3125 1.6875 20.0812 1.6875 13.5C1.6875 6.91875 6.91875 1.6875 13.5 1.6875C20.0812 1.6875 25.3125 6.91875 25.3125 13.5ZM13.3875 18.9563C13.3875 18.7313 13.275 18.6188 13.05 18.5063C12.3188 18.2812 11.6438 18.2812 11.025 17.6625C10.9125 17.4375 10.9125 17.2125 10.8 16.9313C10.575 16.7063 9.95625 16.5938 9.61875 16.4812H7.25625C6.91875 16.3687 6.6375 15.8625 6.4125 15.525C6.4125 15.4125 6.4125 15.1875 6.1875 15.1875C5.9625 15.075 5.7375 15.3 5.45625 15.1875C5.34375 15.075 5.34375 14.9625 5.34375 14.85C5.34375 14.5125 5.56875 14.1188 5.79375 13.8938C6.13125 13.6688 6.525 14.0062 6.8625 14.0062C6.975 14.0062 6.975 14.0063 7.0875 14.1188C7.425 14.2312 7.5375 14.6812 7.5375 15.075V15.3C7.5375 15.4125 7.65 15.4125 7.7625 15.4125C7.875 14.7937 7.875 14.2313 7.9875 13.6125C7.9875 12.8813 8.71875 12.2062 9.28125 11.9812C9.50625 11.8687 9.61875 12.0938 9.9 11.9812C10.6313 11.7562 12.375 11.025 12.0375 10.0687C11.8125 9.225 11.0813 8.4375 10.125 8.55C9.9 8.6625 9.7875 8.775 9.5625 8.8875C9.225 9.1125 8.49375 9.84375 8.15625 9.84375C7.5375 9.73125 7.5375 8.8875 7.70625 8.55C7.81875 8.1 8.8875 6.525 9.61875 6.80625L10.0687 7.25625C10.2937 7.36875 10.6875 7.36875 11.025 7.36875C11.1375 7.36875 11.25 7.36875 11.3625 7.25625C11.475 7.14375 11.475 7.14375 11.475 7.03125C11.475 6.69375 11.1375 6.3 10.9125 6.075C10.6875 5.85 10.2938 5.625 9.95625 5.45625C8.775 5.11875 6.8625 5.56875 5.9625 6.4125C5.0625 7.25625 4.33125 8.6625 3.825 9.84375C3.6 10.575 3.375 11.475 3.2625 12.3187C3.15 12.8812 3.0375 13.3875 3.375 13.95C3.7125 14.6812 4.44375 15.3563 5.175 15.8625C5.625 16.2 6.58125 16.2 7.0875 16.8187C7.425 17.2688 7.3125 17.8875 7.3125 18.45C7.3125 19.1812 7.7625 19.7437 8.04375 20.3625C8.15625 20.7 8.26875 21.2062 8.38125 21.5437C8.38125 21.6562 8.49375 22.3875 8.49375 22.5C9.225 22.8375 9.7875 23.2313 10.6312 23.4563C10.7437 23.4563 11.1937 22.725 11.1937 22.6125C11.5312 22.275 11.8125 21.7687 12.15 21.5437C12.375 21.4312 12.6 21.3188 12.8812 21.0938C13.1062 20.8687 13.2188 20.3625 13.3313 20.025C13.3875 19.7437 13.5 19.2938 13.3875 18.9563ZM13.6125 8.04375C13.725 8.04375 13.8375 7.93125 14.0625 7.81875C14.4 7.59375 14.7937 7.2 15.1312 6.975C15.4688 6.75 15.8625 6.35625 16.0875 6.13125C16.425 5.90625 16.7063 5.4 16.8187 5.0625C16.9312 4.8375 17.2688 4.33125 17.1562 3.99375C17.0437 3.76875 16.425 3.65625 16.2 3.54375C15.2437 3.31875 14.4563 3.20625 13.5 3.20625C13.1625 3.20625 12.6562 3.31875 12.5437 3.65625C12.4312 4.275 12.8812 4.10625 13.3875 4.275C13.3875 4.275 13.5 5.23125 13.5 5.34375C13.6125 5.90625 13.275 6.3 13.275 6.8625C13.275 7.2 13.275 7.81875 13.5 8.04375H13.6125ZM23.5125 16.3125C23.625 16.0875 23.625 15.6938 23.7375 15.4688C23.85 14.9062 23.85 14.2875 23.85 13.725C23.85 12.5437 23.7375 11.3625 23.4 10.2937C23.175 9.95625 23.0625 9.5625 22.95 9.225C22.725 8.60625 22.3875 8.04375 21.8813 7.59375C21.4313 6.975 20.8125 5.34375 19.7437 5.85C19.4062 5.9625 19.1812 6.4125 18.9 6.69375C18.675 7.03125 18.45 7.425 18.1687 7.7625C18.0562 7.875 17.9437 8.1 18.0562 8.2125C18.0562 8.325 18.1688 8.325 18.2812 8.325C18.5063 8.4375 18.6187 8.4375 18.8438 8.55C18.9562 8.55 19.0688 8.6625 18.9563 8.775C18.9563 8.775 18.9562 8.8875 18.8438 8.8875C18.2812 9.50625 17.6625 9.95625 17.1 10.5188C16.9875 10.6313 16.875 10.8562 16.875 10.9688C16.875 11.0813 16.9875 11.0813 16.9875 11.1937C16.9875 11.3062 16.875 11.3062 16.7625 11.4187C16.5375 11.5312 16.3125 11.6438 16.1438 11.7562C16.0312 11.9812 16.1438 12.375 16.0312 12.6C15.9187 13.2188 15.5813 13.6687 15.3 14.2312C15.075 14.5687 14.9625 14.9625 14.7375 15.3C14.7375 15.75 14.625 16.1437 14.85 16.4812C15.4125 17.325 16.4812 16.8188 17.325 17.2125C17.55 17.325 17.775 17.325 17.9438 17.55C18.2812 17.8875 18.2812 18.5063 18.3938 18.8438C18.5063 19.2938 18.6187 19.8 18.8438 20.25C18.9562 20.8125 19.1812 21.4313 19.2937 21.8813C20.3625 21.0375 21.3187 20.1375 21.9937 18.9563C22.8375 18.225 23.175 17.2688 23.5125 16.3125Z" fill="#0277BD"/>
</svg>
