<svg width="28" height="28" viewBox="0 0 28 28" fill="none" xmlns="http://www.w3.org/2000/svg">
<g clip-path="url(#clip0_1508_893)">
<path d="M14 2.33331C11.8341 2.33331 9.75684 3.19373 8.22529 4.72527C6.69375 6.25682 5.83333 8.33404 5.83333 10.5V14.616C5.8335 14.797 5.79156 14.9755 5.71083 15.1375L3.70767 19.1426C3.60981 19.3383 3.56361 19.5558 3.57344 19.7743C3.58327 19.9929 3.64881 20.2053 3.76384 20.3914C3.87886 20.5775 4.03955 20.7311 4.23064 20.8376C4.42174 20.9441 4.63689 21 4.85567 21H23.1443C23.3631 21 23.5783 20.9441 23.7694 20.8376C23.9604 20.7311 24.1211 20.5775 24.2362 20.3914C24.3512 20.2053 24.4167 19.9929 24.4266 19.7743C24.4364 19.5558 24.3902 19.3383 24.2923 19.1426L22.2903 15.1375C22.2092 14.9756 22.1669 14.7971 22.1667 14.616V10.5C22.1667 8.33404 21.3063 6.25682 19.7747 4.72527C18.2432 3.19373 16.1659 2.33331 14 2.33331ZM14 24.5C13.2759 24.5004 12.5695 24.2761 11.9782 23.8582C11.3869 23.4403 10.9397 22.8493 10.6983 22.1666H17.3017C17.0603 22.8493 16.6131 23.4403 16.0218 23.8582C15.4305 24.2761 14.7241 24.5004 14 24.5Z" fill="#CBCBCB"/>
</g>
<defs>
<clipPath id="clip0_1508_893">
<rect width="28" height="28" fill="white"/>
</clipPath>
</defs>
</svg>
