<svg width="29" height="29" viewBox="0 0 29 29" fill="none" xmlns="http://www.w3.org/2000/svg">
<path d="M5.16663 21.5C5.16663 20.2623 5.65829 19.0753 6.53346 18.2002C7.40863 17.325 8.59562 16.8333 9.83329 16.8333H19.1666C20.4043 16.8333 21.5913 17.325 22.4665 18.2002C23.3416 19.0753 23.8333 20.2623 23.8333 21.5C23.8333 22.1188 23.5875 22.7123 23.1499 23.1499C22.7123 23.5875 22.1188 23.8333 21.5 23.8333H7.49996C6.88112 23.8333 6.28763 23.5875 5.85004 23.1499C5.41246 22.7123 5.16663 22.1188 5.16663 21.5Z" stroke="#474747" stroke-width="2.3" stroke-linejoin="round"/>
<path d="M14.5 12.1667C16.433 12.1667 18 10.5997 18 8.66667C18 6.73368 16.433 5.16667 14.5 5.16667C12.567 5.16667 11 6.73368 11 8.66667C11 10.5997 12.567 12.1667 14.5 12.1667Z" stroke="#474747" stroke-width="2.3"/>
</svg>
