<svg width="29" height="29" viewBox="0 0 29 29" fill="none" xmlns="http://www.w3.org/2000/svg">
<path d="M4.83329 4.83335H9.67871V2.41669H2.41663V9.66669H4.83329V4.83335ZM4.83329 19.3334H2.41663V26.5834H9.67871V24.1667H4.83329V19.3334ZM24.1666 24.1667H19.3333V26.5834H26.5833V19.3334H24.1666V24.1667ZM19.3333 4.83335H24.1666V9.66669H26.5833V2.41669H19.3333V4.83335Z" fill="#F50B0B"/>
<path d="M6.04163 13.2917H13.2916V6.04169H6.04163V13.2917ZM8.45829 8.45835H10.875V10.875H8.45829V8.45835ZM6.04163 22.9584H13.2916V15.7084H6.04163V22.9584ZM8.45829 18.125H10.875V20.5417H8.45829V18.125ZM22.9583 6.04169H15.7083V13.2917H22.9583V6.04169ZM20.5416 10.875H18.125V8.45835H20.5416V10.875ZM15.7204 15.7084H18.137V18.125H15.7204V15.7084ZM18.137 18.125H20.5537V20.5417H18.137V18.125ZM20.5537 20.5417H22.9704V22.9584H20.5537V20.5417ZM20.5537 15.7084H22.9704V18.125H20.5537V15.7084Z" fill="#F50B0B"/>
</svg>
