<svg width="27" height="27" viewBox="0 0 27 27" fill="none" xmlns="http://www.w3.org/2000/svg">
<g clip-path="url(#clip0_1508_962)">
<path d="M13.5723 8.34444C10.7004 8.34444 8.41672 10.6281 8.41672 13.5C8.41672 16.3719 10.7004 18.6556 13.5723 18.6556C16.4442 18.6556 18.7278 16.3719 18.7278 13.5C18.7278 10.6281 16.4442 8.34444 13.5723 8.34444ZM13.5723 17.0111C11.6053 17.0111 10.0612 15.467 10.0612 13.5C10.0612 11.533 11.6053 9.98889 13.5723 9.98889C15.5393 9.98889 17.0834 11.533 17.0834 13.5C17.0834 15.467 15.5393 17.0111 13.5723 17.0111Z" fill="#474747" stroke="#474747" stroke-width="0.2"/>
<path d="M22.8325 7.55296L22.8325 7.55299L22.8339 7.55028C23.0688 7.08049 22.9916 6.45576 22.5985 6.06262L20.8652 4.32929C20.472 3.93615 19.8473 3.859 19.3775 4.09389L19.3775 4.09385L19.3748 4.09528L17.5382 5.08424L16.5419 4.68573L15.9063 2.70828L15.906 2.70726C15.7493 2.23731 15.2807 1.84444 14.7278 1.84444H12.2722C11.7215 1.84444 11.2465 2.23636 11.1634 2.78839L10.5344 4.74528C10.1332 4.8193 9.79097 4.95531 9.45328 5.15186L7.6252 4.16751L7.62522 4.16747L7.62251 4.16611C7.15273 3.93122 6.52799 4.00837 6.13486 4.40151L4.40153 6.13484C4.00839 6.52798 3.93123 7.15271 4.16613 7.6225L4.16612 7.6225L4.16685 7.62391L5.08465 9.38892C5.01751 9.55925 4.95053 9.74345 4.88413 9.92606L4.88381 9.92694C4.8173 10.1098 4.75137 10.2911 4.68559 10.4581L2.7083 11.0937L2.70728 11.094C2.23733 11.2507 1.84446 11.7193 1.84446 12.2722V14.7278C1.84446 15.283 2.24002 15.7512 2.78206 15.9068L4.75797 16.5419L5.15647 17.5382L4.16752 19.3748L4.16748 19.3748L4.16613 19.3775C3.93123 19.8473 4.00839 20.472 4.40153 20.8652L6.13486 22.5985C6.52799 22.9916 7.15273 23.0688 7.62251 22.8339L7.62253 22.8339L7.6252 22.8325L9.46183 21.8435L10.4575 22.2418L11.0934 24.2908L11.0934 24.2908L11.094 24.2927C11.2507 24.7627 11.7194 25.1556 12.2722 25.1556H14.7278C15.2807 25.1556 15.7493 24.7627 15.906 24.2927L15.906 24.2927L15.9066 24.2908L16.5425 22.2418L17.5382 21.8435L19.3748 22.8325L19.3748 22.8325L19.3775 22.8339C19.8473 23.0688 20.472 22.9916 20.8652 22.5985L22.5985 20.8652C22.9916 20.472 23.0688 19.8473 22.8339 19.3775L22.8339 19.3775L22.8325 19.3748L21.8436 17.5382L22.2418 16.5425L24.2908 15.9066L24.2908 15.9066L24.2927 15.906C24.7627 15.7493 25.1556 15.2807 25.1556 14.7278V12.2722C25.1556 11.7242 24.7672 11.1787 24.218 11.021L22.2421 10.3859L21.8436 9.38959L22.8325 7.55296ZM20.9819 15.2099L20.9248 15.2274L20.9131 15.2859L20.8429 15.6368L20.1997 17.1377L19.9865 17.493L19.957 17.5421L19.9844 17.5923L21.2486 19.91L19.91 21.2486L17.5923 19.9844L17.5421 19.957L17.493 19.9865L17.1337 20.2021C17.1334 20.2022 17.1331 20.2024 17.1328 20.2026C16.6351 20.4869 16.1385 20.6997 15.6431 20.8416L15.286 20.913L15.2274 20.9248L15.2099 20.9819L14.4371 23.5111H12.5629L11.7901 20.9819L11.7726 20.9248L11.7141 20.913L11.3632 20.8429L9.8623 20.1996L9.50702 19.9865L9.45793 19.957L9.40768 19.9844L7.09004 21.2486L5.75141 19.91L7.01558 17.5923L7.04299 17.5421L7.01354 17.493L6.79743 17.1328C6.51311 16.6351 6.30031 16.1385 6.15839 15.6431L6.08696 15.2859L6.07525 15.2274L6.01812 15.2099L3.4889 14.4371V12.5637L5.87267 11.8626L5.91927 11.8489L5.93731 11.8038L6.08175 11.4427L6.08261 11.443L6.08592 11.4298C6.22773 10.8625 6.44041 10.3657 6.7252 9.86719L6.94132 9.507L6.96997 9.45926L6.94447 9.40976L5.75012 7.09132L7.08932 5.75212L9.33432 7.01493L9.38497 7.04342L9.4348 7.01353L9.79498 6.79742C10.2935 6.51262 10.7903 6.29994 11.3576 6.15812L11.3578 6.15902L11.3705 6.15396L11.7316 6.00951L11.7756 5.9919L11.7899 5.94665L12.5623 3.48889H14.4377L15.2102 5.94665L15.2244 5.9919L15.2684 6.00951L15.6295 6.15396L15.6293 6.15444L15.6392 6.15726C16.136 6.29919 16.6338 6.51235 17.1328 6.79741L17.493 7.01353L17.5421 7.04297L17.5923 7.01557L19.91 5.7514L21.2486 7.09002L19.9844 9.40767L19.957 9.45792L19.9865 9.507L20.2021 9.86628C20.2022 9.86658 20.2024 9.86688 20.2026 9.86718C20.4869 10.3649 20.6997 10.8615 20.8416 11.3569L20.9131 11.7141L20.9248 11.7726L20.9819 11.7901L23.5111 12.5629V14.4371L20.9819 15.2099Z" fill="#474747" stroke="#474747" stroke-width="0.2"/>
</g>
<defs>
<clipPath id="clip0_1508_962">
<rect width="26" height="26" fill="white" transform="translate(0.5 0.5)"/>
</clipPath>
</defs>
</svg>
