<svg width="41" height="40" viewBox="0 0 41 40" fill="none" xmlns="http://www.w3.org/2000/svg">
<g filter="url(#filter0_d_2571_811)">
<rect x="5" y="5" width="30.7692" height="30" rx="7" fill="white"/>
<g clip-path="url(#clip0_2571_811)">
<path d="M22.5335 15.8279C22.5791 15.8668 22.6247 15.9112 22.6702 15.9501C23.331 16.5444 24.1171 16.7943 25.0057 16.6721C26.3615 16.4889 27.3527 15.4003 27.421 14.0451C27.4894 12.7955 26.595 11.6291 25.319 11.2959C25.1823 11.2626 25.0456 11.2348 24.9089 11.207H24.3051C24.2766 11.2181 24.2538 11.2292 24.2253 11.2348C22.4424 11.5069 21.3829 13.1565 21.9297 14.8227C21.9639 14.9282 21.9468 14.9726 21.85 15.0282C20.5341 15.8168 19.2182 16.611 17.9081 17.4053C17.7201 17.5219 17.5264 17.633 17.3441 17.7441C16.1194 16.5111 14.3307 16.6388 13.2997 17.6108C12.2345 18.616 12.1262 20.2045 13.0604 21.3264C13.5105 21.8707 14.1029 22.2039 14.8092 22.3094C15.8004 22.4538 16.6378 22.1372 17.3327 21.4486C17.3783 21.4763 17.4125 21.493 17.4467 21.5152C18.8992 22.3927 20.3461 23.2703 21.8044 24.1422C21.9411 24.22 21.9525 24.2866 21.9126 24.4255C21.4854 25.7473 22.1291 27.1691 23.4222 27.7301C23.7013 27.8523 24.0089 27.9023 24.2994 27.9911H24.9032C24.9317 27.98 24.9659 27.9689 24.9944 27.9634C26.1678 27.7967 27.1248 26.9248 27.3527 25.8029C27.5919 24.6421 27.0621 23.4758 26.0311 22.8815C25.0001 22.2816 23.7013 22.3872 22.7842 23.1425C22.6873 23.2203 22.5962 23.3091 22.4993 23.3924C20.9556 22.4594 19.4176 21.5319 17.8682 20.5988C18.1188 19.9323 18.1188 19.2714 17.8682 18.6049C19.4176 17.6719 20.9556 16.7388 22.4879 15.8113C22.5221 15.8224 22.5278 15.8224 22.5335 15.8279ZM24.607 12.2123C25.6039 12.2179 26.3957 12.9954 26.3957 13.9674C26.3843 14.9282 25.5754 15.7057 24.5842 15.7002C23.6044 15.6946 22.8069 14.9004 22.8183 13.9451C22.824 12.9787 23.6158 12.2067 24.607 12.2123ZM15.2422 21.343C14.2567 21.343 13.4592 20.5655 13.4592 19.6046C13.4592 18.6438 14.251 17.8662 15.2365 17.8607C16.2333 17.8551 17.0365 18.6327 17.0365 19.5991C17.0422 20.5655 16.239 21.3486 15.2422 21.343ZM24.607 23.5035C25.5982 23.5035 26.3957 24.2922 26.39 25.2586C26.3843 26.2194 25.5811 26.9914 24.5956 26.9914C23.6044 26.9914 22.8012 26.2028 22.8126 25.2364C22.824 24.2755 23.6215 23.5035 24.607 23.5035Z" fill="black"/>
</g>
</g>
<defs>
<filter id="filter0_d_2571_811" x="0" y="0" width="40.7692" height="40" filterUnits="userSpaceOnUse" color-interpolation-filters="sRGB">
<feFlood flood-opacity="0" result="BackgroundImageFix"/>
<feColorMatrix in="SourceAlpha" type="matrix" values="0 0 0 0 0 0 0 0 0 0 0 0 0 0 0 0 0 0 127 0" result="hardAlpha"/>
<feOffset/>
<feGaussianBlur stdDeviation="2.5"/>
<feComposite in2="hardAlpha" operator="out"/>
<feColorMatrix type="matrix" values="0 0 0 0 0 0 0 0 0 0 0 0 0 0 0 0 0 0 0.25 0"/>
<feBlend mode="normal" in2="BackgroundImageFix" result="effect1_dropShadow_2571_811"/>
<feBlend mode="normal" in="SourceGraphic" in2="effect1_dropShadow_2571_811" result="shape"/>
</filter>
<clipPath id="clip0_2571_811">
<rect width="14.9929" height="16.7897" fill="white" transform="translate(12.4289 11.207)"/>
</clipPath>
</defs>
</svg>
