<svg width="45" height="44" viewBox="0 0 45 44" fill="none" xmlns="http://www.w3.org/2000/svg">
<path d="M37.3073 9.07761C38.0498 9.93561 38.682 10.886 39.1838 11.909C38.7659 12.3183 38.2696 12.643 37.7233 12.8646C37.1771 13.0862 36.5914 13.2003 36 13.2004C35.196 13.2006 34.4066 12.9902 33.714 12.591L37.3073 9.07761ZM35.7165 7.52001L32.1233 11.0356C31.6141 10.1954 31.4062 9.21314 31.5325 8.24437C31.6589 7.2756 32.1122 6.37576 32.8208 5.68741C33.867 6.17801 34.839 6.79621 35.7165 7.52001ZM40.5 17.6004C40.5011 16.4187 40.3399 15.2422 40.0208 14.1024C38.8958 14.9164 37.5053 15.4004 36 15.4004C34.5977 15.4007 33.2301 14.9739 32.0873 14.1794L29.7158 16.5004L38.2725 24.867C39.6788 22.7814 40.5 20.2844 40.5 17.6004ZM29.25 8.80041C29.25 7.32641 29.7428 5.96681 30.5775 4.86901C29.4118 4.55694 28.2086 4.39933 27 4.40041C24.3576 4.39587 21.7725 5.15348 19.5683 6.57841L28.125 14.945L30.4965 12.624C29.6852 11.5069 29.2495 10.1706 29.25 8.80041ZM26.3408 19.8004C28.9914 22.69 30.7117 26.2798 31.2863 30.1206C33.4171 29.4221 35.3359 28.2144 36.8685 26.6072L28.125 18.0558L26.3408 19.8004ZM26.5343 16.5004L24.75 18.2428C21.7953 15.6514 18.1248 13.9694 14.1975 13.4072C14.9123 11.3245 16.1473 9.44918 17.7908 7.95121L26.5343 16.5004ZM7.875 15.4004C6.97989 15.4004 6.12145 15.7481 5.48851 16.367C4.85558 16.9858 4.5 17.8252 4.5 18.7004V22.0004C4.5 26.6682 6.39642 31.1448 9.77208 34.4455C13.1477 37.7461 17.7261 39.6004 22.5 39.6004H25.875C26.7701 39.6004 27.6286 39.2527 28.2615 38.6339C28.8944 38.015 29.25 37.1756 29.25 36.3004V33.0004C29.25 28.3326 27.3536 23.856 23.9779 20.5553C20.6023 17.2547 16.0239 15.4004 11.25 15.4004H7.875ZM13.8285 24.5216C13.933 24.4192 14.0571 24.3379 14.1938 24.2824C14.3305 24.227 14.477 24.1984 14.625 24.1984C14.773 24.1984 14.9195 24.227 15.0562 24.2824C15.1929 24.3379 15.317 24.4192 15.4215 24.5216L19.9215 28.9216C20.1327 29.1282 20.2514 29.4083 20.2514 29.7004C20.2514 29.9925 20.1327 30.2727 19.9215 30.4792C19.7103 30.6858 19.4237 30.8018 19.125 30.8018C18.8263 30.8018 18.5397 30.6858 18.3285 30.4792L13.8285 26.0792C13.7237 25.977 13.6406 25.8556 13.5839 25.722C13.5272 25.5884 13.498 25.4451 13.498 25.3004C13.498 25.1557 13.5272 25.0125 13.5839 24.8788C13.6406 24.7452 13.7237 24.6238 13.8285 24.5216Z" fill="#4B4B4B"/>
<path d="M13.8285 24.5216C13.933 24.4192 14.0571 24.3379 14.1938 24.2824C14.3305 24.227 14.477 24.1984 14.625 24.1984C14.773 24.1984 14.9195 24.227 15.0562 24.2824C15.1929 24.3379 15.317 24.4192 15.4215 24.5216L19.9215 28.9216C20.1327 29.1282 20.2514 29.4083 20.2514 29.7004C20.2514 29.9925 20.1327 30.2727 19.9215 30.4792C19.7103 30.6858 19.4237 30.8018 19.125 30.8018C18.8263 30.8018 18.5397 30.6858 18.3285 30.4792L13.8285 26.0792C13.7237 25.977 13.6406 25.8556 13.5839 25.722C13.5272 25.5884 13.498 25.4451 13.498 25.3004C13.498 25.1557 13.5272 25.0125 13.5839 24.8788C13.6406 24.7452 13.7237 24.6238 13.8285 24.5216Z" fill="url(#paint0_linear_1508_2447)"/>
<defs>
<linearGradient id="paint0_linear_1508_2447" x1="13.897" y1="24.5887" x2="19.7191" y2="30.543" gradientUnits="userSpaceOnUse">
<stop offset="0.37" stop-color="#FFBC50"/>
<stop offset="1" stop-color="#F50B0B"/>
</linearGradient>
</defs>
</svg>
