<svg width="33" height="33" viewBox="0 0 33 33" fill="none" xmlns="http://www.w3.org/2000/svg">
<g clip-path="url(#clip0_1508_2421)">
<path fill-rule="evenodd" clip-rule="evenodd" d="M2.23229 4.10849C2.85457 3.85156 3.55464 4.19099 3.99543 4.70013C4.3122 5.06647 4.70573 5.35859 5.14807 5.55577C5.67396 5.79088 6.25206 5.88484 6.82534 5.82841C7.39862 5.77198 7.94729 5.56709 8.41725 5.23396C8.88721 4.90083 9.26222 4.45095 9.5053 3.92869C9.74838 3.40644 9.85113 2.82985 9.80343 2.25577C9.75157 1.60991 9.98022 0.902772 10.5695 0.626986L11.5359 0.172058C12.079 -0.0533674 12.689 -0.0561191 13.2341 0.164397C13.7792 0.384912 14.2157 0.810998 14.4494 1.35063L15.5902 3.98591L15.4676 4.25227L15.4653 4.25699L7.946 21.6221L7.13043 23.4771L0.162715 7.35427C-0.0467676 6.8321 -0.0520123 6.25021 0.148024 5.72435C0.348061 5.19849 0.738719 4.7672 1.24229 4.51627L2.23229 4.10849ZM28.9199 8.8322C29.3559 8.31834 30.0584 7.98127 30.6806 8.23584L31.7249 8.6672C32.242 8.92389 32.6434 9.3662 32.8487 9.90583C33.0541 10.4455 33.0484 11.0427 32.8327 11.5783L24.1773 31.614C23.9384 32.1688 23.4903 32.6071 22.9303 32.8335C22.3702 33.0599 21.7434 33.0562 21.1861 32.8232L10.7251 28.3658C10.1704 28.1274 9.73205 27.6799 9.50523 27.1203C9.2784 26.5608 9.28138 25.9344 9.5135 25.377L10.6473 22.8006L18.1736 5.42141C18.4121 4.86671 18.8596 4.42839 19.4192 4.20157C19.9787 3.97475 20.6051 3.97772 21.1625 4.20984L22.1855 4.68834C22.7748 4.96413 23.0034 5.67127 22.9445 6.31949C22.9009 6.81156 22.9646 7.30723 23.131 7.77234C23.2974 8.23746 23.5627 8.66097 23.9086 9.0137C24.2398 9.3496 24.6372 9.61297 25.0756 9.78712C25.514 9.96127 25.9839 10.0424 26.4553 10.0253C26.9267 10.0083 27.3895 9.89338 27.8141 9.68798C28.2388 9.48259 28.6161 9.19117 28.9222 8.8322H28.9199Z" fill="#4B4B4B"/>
<path d="M20.0429 16.5001C20.0429 15.5512 19.2713 14.7793 18.3215 14.7793C17.3728 14.7793 16.6012 15.5512 16.6012 16.5001C16.6012 17.4492 17.3728 18.221 18.3215 18.221C19.2709 18.2216 20.0429 17.4498 20.0429 16.5001ZM17.7046 16.5001C17.7046 16.1597 17.9815 15.8827 18.3209 15.8827C18.6615 15.8827 18.9385 16.1597 18.9385 16.5001C18.9385 16.8406 18.6615 17.1175 18.3209 17.1175C17.9815 17.1181 17.7046 16.8412 17.7046 16.5001Z" fill="url(#paint0_linear_1508_2421)"/>
<path d="M23.8979 15.3205C23.6639 15.1181 23.308 15.1432 23.1049 15.3757L17.3457 21.9538C17.1428 22.1864 17.1681 22.5389 17.402 22.7408C17.5083 22.8322 17.6404 22.8768 17.7708 22.8768C17.9278 22.8768 18.0842 22.8116 18.1949 22.685L23.9536 16.1069C24.1583 15.8743 24.133 15.5223 23.8979 15.3205Z" fill="url(#paint1_linear_1508_2421)"/>
<path d="M23.5853 19.2334C22.6366 19.2334 21.865 20.0052 21.865 20.9543C21.865 21.9037 22.6366 22.6751 23.5853 22.6751C24.5351 22.6751 25.3067 21.9037 25.3067 20.9543C25.3067 20.0058 24.5351 19.2334 23.5853 19.2334ZM23.5853 21.571C23.2459 21.571 22.9688 21.2941 22.9688 20.9543C22.9688 20.6139 23.2459 20.3369 23.5853 20.3369C23.9258 20.3369 24.2029 20.6139 24.2029 20.9543C24.2029 21.2947 23.9258 21.571 23.5853 21.571Z" fill="url(#paint2_linear_1508_2421)"/>
</g>
<defs>
<linearGradient id="paint0_linear_1508_2421" x1="18.3221" y1="14.7793" x2="18.3221" y2="18.221" gradientUnits="userSpaceOnUse">
<stop stop-color="#F50B0B"/>
<stop offset="1" stop-color="#FFC942"/>
</linearGradient>
<linearGradient id="paint1_linear_1508_2421" x1="20.6503" y1="15.1836" x2="20.6503" y2="22.8768" gradientUnits="userSpaceOnUse">
<stop stop-color="#F50B0B"/>
<stop offset="1" stop-color="#FFC942"/>
</linearGradient>
<linearGradient id="paint2_linear_1508_2421" x1="23.5858" y1="19.2334" x2="23.5858" y2="22.6751" gradientUnits="userSpaceOnUse">
<stop stop-color="#F50B0B"/>
<stop offset="1" stop-color="#FFC942"/>
</linearGradient>
<clipPath id="clip0_1508_2421">
<rect width="33" height="33" fill="white"/>
</clipPath>
</defs>
</svg>
