<svg width="23" height="18" viewBox="0 0 23 18" fill="none" xmlns="http://www.w3.org/2000/svg">
<path d="M8.22502 3.79134V3.94134H8.37502H10.9792C11.2157 3.94134 11.4425 4.03528 11.6097 4.2025C11.7769 4.36972 11.8708 4.59652 11.8708 4.833C11.8708 5.06949 11.7769 5.29629 11.6097 5.46351C11.4425 5.63073 11.2157 5.72467 10.9792 5.72467H7.33335C7.09687 5.72467 6.87007 5.63073 6.70285 5.46351C6.53563 5.29629 6.44168 5.06949 6.44168 4.833V3.18092V2.81886L6.18563 3.07484L2.44917 6.81026L2.34306 6.91634L2.44917 7.02242L6.18563 10.7578L6.44168 11.0138V10.6518V8.99967C6.44168 8.76319 6.53563 8.53639 6.70285 8.36917C6.87007 8.20195 7.09687 8.108 7.33335 8.108H14.625H14.775V7.958V6.08925C14.775 4.83105 16.2958 4.2004 17.1856 5.0911L17.1856 5.09116L22.1793 10.0838C22.1794 10.0839 22.1794 10.0839 22.1794 10.0839C22.4442 10.3488 22.5929 10.708 22.5929 11.0825C22.5929 11.457 22.4442 11.8162 22.1794 12.0811C22.1794 12.0811 22.1794 12.0811 22.1793 12.0811L17.1856 17.0738L17.1856 17.0738C16.2957 17.9637 14.775 17.3337 14.775 16.0757V14.208V14.058H14.625H12.0208C11.7844 14.058 11.5576 13.9641 11.3903 13.7968C11.2231 13.6296 11.1292 13.4028 11.1292 13.1663C11.1292 12.9299 11.2231 12.7031 11.3903 12.5358C11.5576 12.3686 11.7844 12.2747 12.0208 12.2747H15.6667C15.9032 12.2747 16.13 12.3686 16.2972 12.5358C16.4644 12.7031 16.5583 12.9299 16.5583 13.1663V14.8184V15.1806L16.8144 14.9245L20.5498 11.1891L20.6559 11.083L20.5498 10.977L16.8144 7.24049L16.5583 6.98434V7.34654V8.99967C16.5583 9.23616 16.4644 9.46295 16.2972 9.63017C16.13 9.79739 15.9032 9.89134 15.6667 9.89134H8.37293H8.22293V10.0413V11.908C8.22293 13.1662 6.70209 13.7969 5.81233 12.9071L5.81232 12.9071L0.818571 7.91443L0.818548 7.9144C0.68729 7.78323 0.583165 7.62748 0.512123 7.45604C0.441082 7.28461 0.404517 7.10086 0.404517 6.91529C0.404517 6.72973 0.441082 6.54598 0.512123 6.37455C0.583161 6.20312 0.687279 6.04738 0.818527 5.91621C0.818534 5.9162 0.818541 5.91619 0.818549 5.91619L5.81436 0.925583L5.81458 0.925359C6.70318 0.0339389 8.22502 0.664228 8.22502 1.92363V3.79134Z" fill="#F50B0B" stroke="white" stroke-width="0.3"/>
</svg>
