<svg width="24" height="19" viewBox="0 0 24 19" fill="none" xmlns="http://www.w3.org/2000/svg">
<path d="M2.24278 9.08501L1.41749 8.05809L2.24278 9.08501ZM2.24278 9.08501C2.42712 9.31387 2.42712 9.68661 2.24278 9.91564V9.08501ZM1.33954 8.12074L1.33948 8.12066C1.05559 7.7667 0.9 7.3017 0.9 6.81199V2.78368C0.9 1.76428 1.58542 0.9 2.46664 0.9H16H21.5334C22.4146 0.9 23.1 1.76428 23.1 2.78368V6.81199C23.1 7.30153 22.9454 7.76729 22.6604 8.12144L21.8357 9.14703L21.8356 9.14717C21.6809 9.33882 21.6807 9.65935 21.8357 9.85237L22.6604 10.8791L1.33954 8.12074ZM1.33954 8.12074L2.16483 9.14765L2.1649 9.14774M1.33954 8.12074L2.1649 9.14774M2.1649 9.14774C2.31974 9.33997 2.31976 9.6605 2.16488 9.85294L2.16482 9.85301M2.1649 9.14774L2.16482 9.85301M2.16482 9.85301L1.34064 10.879M2.16482 9.85301L1.34064 10.879M1.34064 10.879C1.34063 10.8791 1.34062 10.8791 1.34061 10.8791L1.34064 10.879ZM20.9806 10.8093L20.9806 10.8094L21.8059 11.8368L21.806 11.8368C21.8797 11.9285 21.9222 12.0532 21.9222 12.188V16.2162C21.9222 16.508 21.7309 16.7108 21.5334 16.7108H16.7141V16.5136C16.7141 16.1488 16.4688 15.8189 16.1253 15.8189C15.7822 15.8189 15.5363 16.1487 15.5363 16.5136V16.7108H2.46664C2.26995 16.7108 2.0778 16.5079 2.0778 16.2162V12.188C2.0778 12.0526 2.12105 11.9276 2.19504 11.835C2.19508 11.8349 2.19511 11.8349 2.19515 11.8348L3.02029 10.8083L3.02032 10.8082C3.60164 10.0843 3.60168 8.91381 3.02029 8.19044L3.02029 8.19044L2.195 7.16368L2.19484 7.16349C2.12114 7.07226 2.0778 6.94757 2.0778 6.81199V2.78368C2.0778 2.49213 2.26993 2.28917 2.46664 2.28917H15.5363V2.48642C15.5363 2.85064 15.7822 3.18093 16.1253 3.18093C16.4688 3.18093 16.7141 2.85054 16.7141 2.48642V2.28917H21.5334C21.7309 2.28917 21.9222 2.492 21.9222 2.78368V6.81199C21.9222 6.94795 21.8797 7.07249 21.8052 7.16456L21.805 7.16486L20.9806 8.19173C20.3992 8.91511 20.3993 10.0849 20.9806 10.8093Z" fill="#4B4B4B" stroke="#4B4B4B" stroke-width="0.2"/>
</svg>
