<svg width="26" height="27" viewBox="0 0 26 27" fill="none" xmlns="http://www.w3.org/2000/svg">
<path d="M20.2916 8.15625H20.0311V5.625C20.0284 5.10377 19.8355 4.60472 19.4942 4.23615C19.1529 3.86757 18.6908 3.6592 18.2082 3.65625C18.1255 3.64071 18.0409 3.64071 17.9582 3.65625L5.56239 8.15625H5.28114L5.10406 8.22375H4.95822L4.79156 8.325L4.66656 8.51625L4.52072 8.65125L4.40614 8.76375L4.28114 8.9325C4.24795 8.96492 4.21981 9.00291 4.19781 9.045C4.15989 9.11052 4.12512 9.17811 4.09364 9.2475L4.03114 9.37125C4.00244 9.45217 3.9781 9.5348 3.95822 9.61875C3.96244 9.65987 3.96244 9.70138 3.95822 9.7425C3.94817 9.86977 3.94817 9.99773 3.95822 10.125V21.375C3.96041 21.883 4.14327 22.3706 4.46899 22.737C4.79471 23.1034 5.23838 23.3207 5.70822 23.3438H20.2916C20.7742 23.3408 21.2363 23.1324 21.5775 22.7639C21.9188 22.3953 22.1117 21.8962 22.1145 21.375V10.125C22.1117 9.60377 21.9188 9.10472 21.5775 8.73615C21.2363 8.36757 20.7742 8.1592 20.2916 8.15625ZM18.2916 5.355C18.3429 5.37544 18.3872 5.41217 18.4188 5.46036C18.4505 5.50855 18.4678 5.56595 18.4686 5.625V8.15625H10.5207L18.2916 5.355ZM20.552 21.375C20.552 21.4496 20.5245 21.5211 20.4757 21.5739C20.4269 21.6266 20.3606 21.6562 20.2916 21.6562H5.70822C5.63916 21.6562 5.57292 21.6266 5.52408 21.5739C5.47524 21.5211 5.44781 21.4496 5.44781 21.375V10.125C5.44781 10.0504 5.47524 9.97887 5.52408 9.92613C5.57292 9.87338 5.63916 9.84375 5.70822 9.84375H20.2916C20.3606 9.84375 20.4269 9.87338 20.4757 9.92613C20.5245 9.97887 20.552 10.0504 20.552 10.125V21.375Z" fill="#474747"/>
<path d="M17.6876 17.1562C18.4067 17.1562 18.9897 16.5267 18.9897 15.75C18.9897 14.9733 18.4067 14.3438 17.6876 14.3438C16.9685 14.3438 16.3855 14.9733 16.3855 15.75C16.3855 16.5267 16.9685 17.1562 17.6876 17.1562Z" fill="#474747"/>
</svg>
