<svg width="20" height="20" viewBox="0 0 20 20" fill="none" xmlns="http://www.w3.org/2000/svg">
<path d="M1.85547 4.06274H16.875V2.01274C16.875 1.92026 16.8545 1.82893 16.8149 1.74534C16.7754 1.66174 16.7177 1.58797 16.6462 1.52934C16.5747 1.47071 16.4911 1.42869 16.4013 1.40629C16.3116 1.3839 16.218 1.3817 16.1273 1.39985L1.75234 3.76235C1.6453 3.78366 1.54571 3.83262 1.46347 3.90438C1.38123 3.97613 1.31922 4.06817 1.28359 4.17133C1.46566 4.09936 1.6597 4.06252 1.85547 4.06274ZM18.1055 5.00024H1.85547C1.68971 5.00024 1.53074 5.06609 1.41353 5.1833C1.29632 5.30051 1.23047 5.45948 1.23047 5.62524V16.8752C1.23047 17.041 1.29632 17.2 1.41353 17.3172C1.53074 17.4344 1.68971 17.5002 1.85547 17.5002H18.1055C18.2712 17.5002 18.4302 17.4344 18.5474 17.3172C18.6646 17.2 18.7305 17.041 18.7305 16.8752V5.62524C18.7305 5.45948 18.6646 5.30051 18.5474 5.1833C18.4302 5.06609 18.2712 5.00024 18.1055 5.00024ZM14.375 12.5002C14.1278 12.5002 13.8861 12.4269 13.6805 12.2896C13.475 12.1522 13.3148 11.957 13.2201 11.7286C13.1255 11.5002 13.1008 11.2489 13.149 11.0064C13.1972 10.7639 13.3163 10.5412 13.4911 10.3664C13.6659 10.1915 13.8887 10.0725 14.1311 10.0243C14.3736 9.97603 14.6249 10.0008 14.8534 10.0954C15.0818 10.19 15.277 10.3502 15.4143 10.5558C15.5517 10.7613 15.625 11.003 15.625 11.2502C15.625 11.5818 15.4933 11.8997 15.2589 12.1341C15.0245 12.3685 14.7065 12.5002 14.375 12.5002Z" fill="#0E0E0E" fill-opacity="0.75"/>
<path d="M1.22388 10.1367V4.53125C1.22388 4.04961 1.44731 3.80937 1.82622 3.75C3.20122 3.53398 6.06763 3.41797 6.06763 3.41797C6.06763 3.41797 5.74224 4.04297 5.00005 4.04297V5C5.7227 5 6.22388 5.91797 6.22388 5.91797L3.31372 9.21875L1.22388 10.1367Z" fill="#0E0E0E" fill-opacity="0.75"/>
</svg>
