<svg width="24" height="24" viewBox="0 0 24 24" fill="none" xmlns="http://www.w3.org/2000/svg">
<path d="M2.22656 4.87412H20.25V2.41412C20.25 2.30314 20.2254 2.19354 20.1779 2.09323C20.1304 1.99292 20.0613 1.9044 19.9755 1.83404C19.8896 1.76368 19.7893 1.71325 19.6816 1.68638C19.5739 1.65951 19.4616 1.65687 19.3528 1.67865L2.10281 4.51365C1.97436 4.53922 1.85485 4.59798 1.75616 4.68408C1.65748 4.77019 1.58306 4.88063 1.54031 5.00443C1.75879 4.91806 1.99164 4.87385 2.22656 4.87412ZM21.7266 5.99912H2.22656C2.02765 5.99912 1.83688 6.07813 1.69623 6.21879C1.55558 6.35944 1.47656 6.5502 1.47656 6.74912V20.2491C1.47656 20.448 1.55558 20.6388 1.69623 20.7794C1.83688 20.9201 2.02765 20.9991 2.22656 20.9991H21.7266C21.9255 20.9991 22.1162 20.9201 22.2569 20.7794C22.3975 20.6388 22.4766 20.448 22.4766 20.2491V6.74912C22.4766 6.5502 22.3975 6.35944 22.2569 6.21879C22.1162 6.07813 21.9255 5.99912 21.7266 5.99912ZM17.25 14.9991C16.9533 14.9991 16.6633 14.9111 16.4166 14.7463C16.17 14.5815 15.9777 14.3472 15.8642 14.0731C15.7506 13.7991 15.7209 13.4975 15.7788 13.2065C15.8367 12.9155 15.9796 12.6482 16.1893 12.4385C16.3991 12.2287 16.6664 12.0858 16.9574 12.0279C17.2483 11.9701 17.5499 11.9998 17.824 12.1133C18.0981 12.2268 18.3324 12.4191 18.4972 12.6658C18.662 12.9124 18.75 13.2024 18.75 13.4991C18.75 13.8969 18.592 14.2785 18.3107 14.5598C18.0294 14.8411 17.6478 14.9991 17.25 14.9991Z" fill="#0E0E0E" fill-opacity="0.75"/>
<path d="M17.25 14.9991C16.9533 14.9991 16.6633 14.9111 16.4166 14.7463C16.17 14.5815 15.9777 14.3472 15.8642 14.0731C15.7506 13.7991 15.7209 13.4975 15.7788 13.2065C15.8367 12.9155 15.9796 12.6482 16.1893 12.4385C16.3991 12.2287 16.6664 12.0858 16.9574 12.0279C17.2483 11.9701 17.5499 11.9998 17.824 12.1133C18.0981 12.2268 18.3324 12.4191 18.4972 12.6658C18.662 12.9124 18.75 13.2024 18.75 13.4991C18.75 13.8969 18.592 14.2785 18.3107 14.5598C18.0294 14.8411 17.6478 14.9991 17.25 14.9991Z" fill="url(#paint0_linear_1912_1170)"/>
<path d="M1.46863 12.1641V5.4375C1.46863 4.85953 1.73675 4.57125 2.19144 4.5C3.84144 4.24078 7.28113 4.10156 7.28113 4.10156C7.28113 4.10156 6.89066 4.85156 6.00003 4.85156V6C6.86722 6 7.46863 7.10156 7.46863 7.10156L3.97644 11.0625L1.46863 12.1641Z" fill="#0E0E0E" fill-opacity="0.75"/>
<defs>
<linearGradient id="paint0_linear_1912_1170" x1="11.9766" y1="1.66406" x2="11.9766" y2="20.9991" gradientUnits="userSpaceOnUse">
<stop stop-color="#F50B0B"/>
<stop offset="1" stop-color="#FFC942"/>
</linearGradient>
</defs>
</svg>
